ffmpeg started on 2016-11-27 at 05:21:31
Report written to "Output/NVENCh264/results/ffmpeg/crowd_run_2160p50llhq3500k.log"
Command line:
Tools/ffmpeg/ffmpeg -benchmark -y -i Input/y4m/crowd_run_2160p50.y4m -c:v h264_nvenc -preset llhq -b:v 3500k -an Output/NVENCh264/encoded/crowd_run_2160p50llhq3500k.mkv
ffmpeg version N-82227-gdb23fde Copyright (c) 2000-2016 the FFmpeg developers
  built with gcc 5.4.0 (Ubuntu 5.4.0-6ubuntu1~16.04.2) 20160609
  configuration: --prefix=/home/jaroslav/ffmpeg_build --pkg-config-flags=--static --extra-cflags=-I/home/jaroslav/ffmpeg_build/include --extra-ldflags=-L/home/jaroslav/ffmpeg_build/lib --bindir=/home/jaroslav/bin --enable-gpl --enable-libass --enable-libfdk-aac --enable-libfreetype --enable-libmp3lame --enable-libopus --enable-libtheora --enable-libvorbis --enable-libvpx --enable-libx264 --enable-libx265 --enable-nvenc --enable-libmfx --enable-libxvid --enable-libgsm --enable-libopencore-amrnb --enable-version3 --enable-nonfree
  libavutil      55. 35.100 / 55. 35.100
  libavcodec     57. 66.101 / 57. 66.101
  libavformat    57. 57.100 / 57. 57.100
  libavdevice    57.  2.100 / 57.  2.100
  libavfilter     6. 66.100 /  6. 66.100
  libswscale      4.  3.100 /  4.  3.100
  libswresample   2.  4.100 /  2.  4.100
  libpostproc    54.  2.100 / 54.  2.100
Input #0, yuv4mpegpipe, from 'Input/y4m/crowd_run_2160p50.y4m':
  Duration: 00:00:10.00, start: 0.000000, bitrate: 4976642 kb/s
    Stream #0:0: Video: rawvideo (I420 / 0x30323449), yuv420p(progressive), 3840x2160, SAR 1:1 DAR 16:9, 50 fps, 50 tbr, 50 tbn, 50 tbc
[h264_nvenc @ 0x2a521c0] The variable bitrate rate-control requires the 'qmin' and/or 'qmax' option set.
Output #0, matroska, to 'Output/NVENCh264/encoded/crowd_run_2160p50llhq3500k.mkv':
  Metadata:
    encoder         : Lavf57.57.100
    Stream #0:0: Video: h264 (h264_nvenc) (Main) (H264 / 0x34363248), yuv420p, 3840x2160 [SAR 1:1 DAR 16:9], q=-1--1, 3500 kb/s, 50 fps, 1k tbn, 50 tbc
    Metadata:
      encoder         : Lavc57.66.101 h264_nvenc
    Side data:
      cpb: bitrate max/min/avg: 0/0/3500000 buffer size: 7000000 vbv_delay: -1
Stream mapping:
  Stream #0:0 -> #0:0 (rawvideo (native) -> h264 (h264_nvenc))
Press [q] to stop, [?] for help
frame=    3 fps=0.0 q=0.0 size=       0kB time=00:00:00.00 bitrate=N/A speed=   0x    frame=    9 fps=8.2 q=0.0 size=       0kB time=00:00:00.00 bitrate=N/A speed=   0x    frame=   14 fps=8.4 q=0.0 size=       0kB time=00:00:00.00 bitrate=N/A speed=   0x    frame=   24 fps= 11 q=0.0 size=       0kB time=00:00:00.00 bitrate=N/A speed=   0x    frame=   36 fps= 13 q=49.0 size=       1kB time=00:00:00.10 bitrate=  59.2kbits/s speed=0.0376x    frame=   54 fps= 17 q=49.0 size=       1kB time=00:00:00.46 bitrate=  13.0kbits/s speed=0.144x    frame=   72 fps= 19 q=49.0 size=       1kB time=00:00:00.82 bitrate=   7.3kbits/s speed=0.22x    frame=   81 fps= 13 q=49.0 size=       1kB time=00:00:01.00 bitrate=   6.0kbits/s speed=0.155x    frame=   82 fps=8.8 q=49.0 size=       1kB time=00:00:01.02 bitrate=   5.9kbits/s speed=0.109x    frame=  100 fps= 10 q=49.0 size=       1kB time=00:00:01.38 bitrate=   4.3kbits/s speed=0.14x    frame=  118 fps= 11 q=49.0 size=       1kB time=00:00:01.74 bitrate=   3.4kbits/s speed=0.168x    frame=  136 fps= 12 q=49.0 size=       1kB time=00:00:02.10 bitrate=   2.8kbits/s speed=0.193x    frame=  153 fps= 13 q=49.0 size=       1kB time=00:00:02.44 bitrate=   2.4kbits/s speed=0.214x    frame=  170 fps= 14 q=49.0 size=       1kB time=00:00:02.78 bitrate=   2.1kbits/s speed=0.234x    frame=  187 fps= 15 q=49.0 size=       1kB time=00:00:03.12 bitrate=   1.9kbits/s speed=0.252x    frame=  204 fps= 16 q=49.0 size=       1kB time=00:00:03.46 bitrate=   1.7kbits/s speed=0.268x    frame=  221 fps= 16 q=49.0 size=       1kB time=00:00:03.80 bitrate=   1.6kbits/s speed=0.283x    frame=  239 fps= 17 q=49.0 size=       1kB time=00:00:04.16 bitrate=   1.4kbits/s speed=0.299x    frame=  256 fps= 18 q=49.0 size=       1kB time=00:00:04.50 bitrate=   1.3kbits/s speed=0.312x    frame=  274 fps= 18 q=49.0 size=       1kB time=00:00:04.86 bitrate=   1.2kbits/s speed=0.325x    frame=  291 fps= 19 q=49.0 size=    3095kB time=00:00:05.20 bitrate=4875.1kbits/s speed=0.336x    frame=  309 fps= 19 q=49.0 size=    3095kB time=00:00:05.56 bitrate=4559.5kbits/s speed=0.348x    frame=  327 fps= 19 q=49.0 size=    3095kB time=00:00:05.92 bitrate=4282.2kbits/s speed=0.352x    frame=  345 fps= 20 q=49.0 size=    3095kB time=00:00:06.28 bitrate=4036.8kbits/s speed=0.363x    frame=  363 fps= 20 q=49.0 size=    3095kB time=00:00:06.64 bitrate=3818.0kbits/s speed=0.367x    frame=  381 fps= 20 q=49.0 size=    3095kB time=00:00:07.00 bitrate=3621.6kbits/s speed=0.376x    frame=  399 fps= 21 q=49.0 size=    3095kB time=00:00:07.36 bitrate=3444.5kbits/s speed=0.384x    frame=  417 fps= 21 q=49.0 size=    3095kB time=00:00:07.72 bitrate=3283.9kbits/s speed=0.393x    frame=  435 fps= 22 q=49.0 size=    3095kB time=00:00:08.08 bitrate=3137.6kbits/s speed= 0.4x    frame=  453 fps= 22 q=49.0 size=    3095kB time=00:00:08.44 bitrate=3003.8kbits/s speed=0.408x    frame=  471 fps= 22 q=49.0 size=    3095kB time=00:00:08.80 bitrate=2880.9kbits/s speed=0.415x    frame=  489 fps= 23 q=49.0 size=    3095kB time=00:00:09.16 bitrate=2767.7kbits/s speed=0.422x    frame=  500 fps= 23 q=49.0 Lsize=    6304kB time=00:00:09.98 bitrate=5174.0kbits/s speed=0.452x    
video:6300kB audio:0kB subtitle:0kB other streams:0kB global headers:0kB muxing overhead: 0.067417%
bench: utime=1.104s
bench: maxrss=1396736kB
